<svg xmlns="http://www.w3.org/2000/svg" viewBox="0 0 120 120" width="120" height="120" aria-hidden="true">
  <defs>
    <radialGradient id="bee-glow" cx="50%" cy="40%" r="60%">
      <stop offset="0%" stop-color="#FFD93D" stop-opacity="0.45"></stop>
      <stop offset="100%" stop-color="#FFD93D" stop-opacity="0"></stop>
    </radialGradient>
  </defs>
  
  <ellipse cx="60" cy="62" rx="42" ry="30" fill="url(#bee-glow)"></ellipse>
  
  <g stroke="#1F2A24" stroke-width="3" stroke-linejoin="round" stroke-linecap="round">
    <ellipse cx="38" cy="40" rx="16" ry="10" fill="#FFFCEC" transform="rotate(-22 38 40)"></ellipse>
    <ellipse cx="82" cy="40" rx="16" ry="10" fill="#FFFCEC" transform="rotate(22 82 40)"></ellipse>
    
    <ellipse cx="60" cy="68" rx="26" ry="20" fill="#FFD93D"></ellipse>
    
    <path d="M44 56 q4 8 0 24" fill="none"></path>
    <path d="M58 50 q4 10 0 36" fill="none"></path>
    <path d="M72 56 q-4 8 0 24" fill="none"></path>
    
    <circle cx="60" cy="46" r="9" fill="#1F2A24"></circle>
    
    <path d="M56 38 q-3 -8 -8 -10" fill="none"></path>
    <path d="M64 38 q3 -8 8 -10" fill="none"></path>
    <circle cx="48" cy="28" r="2" fill="#1F2A24"></circle>
    <circle cx="72" cy="28" r="2" fill="#1F2A24"></circle>
    
    <circle cx="62" cy="45" r="2" fill="#FFFCEC"></circle>
  </g>
</svg>