<svg xmlns="http://www.w3.org/2000/svg" viewBox="0 0 120 120" width="120" height="120" aria-hidden="true">
  <defs>
    <radialGradient id="bf-glow" cx="50%" cy="50%" r="60%">
      <stop offset="0%" stop-color="#F72585" stop-opacity="0.30"></stop>
      <stop offset="100%" stop-color="#F72585" stop-opacity="0"></stop>
    </radialGradient>
  </defs>
  <ellipse cx="60" cy="62" rx="50" ry="36" fill="url(#bf-glow)"></ellipse>
  <g stroke="#1F2A24" stroke-width="3" stroke-linejoin="round" stroke-linecap="round">
    
    <path d="M58 58 C 30 30, 12 38, 14 58 C 12 78, 30 86, 58 66 Z" fill="#F72585"></path>
    <path d="M58 66 C 36 80, 22 92, 28 100 C 36 104, 52 92, 58 78 Z" fill="#B983FF"></path>
    
    <path d="M62 58 C 90 30, 108 38, 106 58 C 108 78, 90 86, 62 66 Z" fill="#FFD93D"></path>
    <path d="M62 66 C 84 80, 98 92, 92 100 C 84 104, 68 92, 62 78 Z" fill="#FFB088"></path>
    
    <circle cx="32" cy="50" r="4" fill="#FFFCEC"></circle>
    <circle cx="88" cy="50" r="4" fill="#FFFCEC"></circle>
    
    <ellipse cx="60" cy="62" rx="4" ry="20" fill="#1F2A24"></ellipse>
    
    <path d="M58 44 q-4 -8 -10 -10" fill="none"></path>
    <path d="M62 44 q4 -8 10 -10" fill="none"></path>
    <circle cx="48" cy="34" r="2" fill="#1F2A24"></circle>
    <circle cx="72" cy="34" r="2" fill="#1F2A24"></circle>
  </g>
</svg>