<svg xmlns="http://www.w3.org/2000/svg" viewBox="0 0 120 120" width="120" height="120" aria-hidden="true">
  <defs>
    <radialGradient id="flower-glow" cx="50%" cy="50%" r="55%">
      <stop offset="0%" stop-color="#FFD93D" stop-opacity="0.35"></stop>
      <stop offset="100%" stop-color="#FFD93D" stop-opacity="0"></stop>
    </radialGradient>
  </defs>
  <ellipse cx="60" cy="60" rx="48" ry="48" fill="url(#flower-glow)"></ellipse>
  <g stroke="#1F2A24" stroke-width="3" stroke-linejoin="round" stroke-linecap="round">
    
    <path d="M60 60 L 60 110" fill="none" stroke="#2E7D5B" stroke-width="4"></path>
    
    <path d="M60 88 C 44 84, 38 92, 44 100 C 52 100, 60 96, 60 88 Z" fill="#6BCB77"></path>
    
    <g fill="#F72585">
      <ellipse cx="60" cy="30" rx="10" ry="16"></ellipse>
      <ellipse cx="60" cy="30" rx="10" ry="16" transform="rotate(60 60 50)"></ellipse>
      <ellipse cx="60" cy="30" rx="10" ry="16" transform="rotate(120 60 50)"></ellipse>
      <ellipse cx="60" cy="30" rx="10" ry="16" transform="rotate(180 60 50)"></ellipse>
      <ellipse cx="60" cy="30" rx="10" ry="16" transform="rotate(240 60 50)"></ellipse>
      <ellipse cx="60" cy="30" rx="10" ry="16" transform="rotate(300 60 50)"></ellipse>
    </g>
    
    <circle cx="60" cy="50" r="9" fill="#FFD93D"></circle>
    <circle cx="60" cy="50" r="3" fill="#1F2A24" stroke="none"></circle>
  </g>
</svg>