<svg xmlns="http://www.w3.org/2000/svg" viewBox="0 0 120 120" width="120" height="120" aria-hidden="true">
  <defs>
    <radialGradient id="fox-glow" cx="50%" cy="55%" r="60%">
      <stop offset="0%" stop-color="#FFB088" stop-opacity="0.40"></stop>
      <stop offset="100%" stop-color="#FFB088" stop-opacity="0"></stop>
    </radialGradient>
  </defs>
  <ellipse cx="60" cy="66" rx="46" ry="34" fill="url(#fox-glow)"></ellipse>
  <g stroke="#1F2A24" stroke-width="3" stroke-linejoin="round" stroke-linecap="round">
    
    <path d="M22 86 C 8 78, 6 60, 18 56 C 26 60, 26 76, 32 82 Z" fill="#FFB088"></path>
    <path d="M14 60 C 10 56, 12 50, 18 56" fill="#FFFCEC"></path>
    
    <path d="M30 78 C 30 60, 50 56, 70 60 C 88 64, 96 78, 86 90 L 36 92 C 30 88, 30 84, 30 78 Z" fill="#FFB088"></path>
    
    <path d="M58 64 C 56 46, 78 38, 90 50 C 100 60, 96 76, 84 78 C 72 80, 60 74, 58 64 Z" fill="#FFB088"></path>
    
    <path d="M68 44 L 64 30 L 78 40 Z" fill="#FFB088"></path>
    <path d="M88 44 L 96 32 L 96 48 Z" fill="#FFB088"></path>
    
    <path d="M82 70 C 92 72, 96 66, 92 60 C 86 60, 82 64, 82 70 Z" fill="#FFFCEC"></path>
    
    <circle cx="94" cy="62" r="3" fill="#1F2A24" stroke="none"></circle>
    <circle cx="80" cy="58" r="2.5" fill="#1F2A24" stroke="none"></circle>
    
    <path d="M44 90 L 42 100 M52 90 L 50 100 M70 90 L 72 100 M80 90 L 82 100" fill="none"></path>
  </g>
</svg>