<svg xmlns="http://www.w3.org/2000/svg" viewBox="0 0 120 120" width="120" height="120" aria-hidden="true">
  <defs>
    <radialGradient id="owl-glow" cx="50%" cy="55%" r="60%">
      <stop offset="0%" stop-color="#B983FF" stop-opacity="0.32"></stop>
      <stop offset="100%" stop-color="#B983FF" stop-opacity="0"></stop>
    </radialGradient>
  </defs>
  <ellipse cx="60" cy="64" rx="44" ry="38" fill="url(#owl-glow)"></ellipse>
  <g stroke="#1F2A24" stroke-width="3" stroke-linejoin="round" stroke-linecap="round">
    
    <path d="M30 60 C 30 30, 90 30, 90 60 L 88 92 C 88 100, 32 100, 32 92 Z" fill="#FFB088"></path>
    
    <path d="M44 60 q4 8 0 16 q4 8 0 16" fill="none" stroke-width="2.5"></path>
    <path d="M60 60 q4 8 0 16 q4 8 0 16" fill="none" stroke-width="2.5"></path>
    <path d="M76 60 q4 8 0 16 q4 8 0 16" fill="none" stroke-width="2.5"></path>
    
    <path d="M36 36 L 30 22 L 42 30 Z" fill="#FFB088"></path>
    <path d="M84 36 L 90 22 L 78 30 Z" fill="#FFB088"></path>
    
    <circle cx="46" cy="50" r="12" fill="#FFD93D"></circle>
    <circle cx="74" cy="50" r="12" fill="#FFD93D"></circle>
    <circle cx="46" cy="50" r="5" fill="#1F2A24" stroke="none"></circle>
    <circle cx="74" cy="50" r="5" fill="#1F2A24" stroke="none"></circle>
    <circle cx="48" cy="48" r="1.5" fill="#FFFCEC" stroke="none"></circle>
    <circle cx="76" cy="48" r="1.5" fill="#FFFCEC" stroke="none"></circle>
    
    <path d="M56 60 L 64 60 L 60 70 Z" fill="#FFD93D"></path>
    
    <path d="M48 96 L 46 102 M48 102 L 44 102 M48 102 L 52 102" fill="none"></path>
    <path d="M72 96 L 74 102 M72 102 L 68 102 M72 102 L 76 102" fill="none"></path>
  </g>
</svg>