<svg xmlns="http://www.w3.org/2000/svg" viewBox="0 0 120 120" width="120" height="120" aria-hidden="true">
  <g stroke="#1F2A24" stroke-width="3" stroke-linejoin="round" stroke-linecap="round">
    
    <path d="M60 110 L 60 60" stroke="#2E7D5B" stroke-width="4" fill="none"></path>
    
    <path d="M60 92 C 36 86, 26 96, 32 108 C 50 108, 60 100, 60 92 Z" fill="#6BCB77"></path>
    <path d="M60 78 C 84 72, 94 82, 88 94 C 70 94, 60 86, 60 78 Z" fill="#6BCB77"></path>
    
    <g fill="#FFD93D">
      <ellipse cx="60" cy="20" rx="6" ry="14"></ellipse>
      <ellipse cx="60" cy="20" rx="6" ry="14" transform="rotate(30 60 36)"></ellipse>
      <ellipse cx="60" cy="20" rx="6" ry="14" transform="rotate(60 60 36)"></ellipse>
      <ellipse cx="60" cy="20" rx="6" ry="14" transform="rotate(90 60 36)"></ellipse>
      <ellipse cx="60" cy="20" rx="6" ry="14" transform="rotate(120 60 36)"></ellipse>
      <ellipse cx="60" cy="20" rx="6" ry="14" transform="rotate(150 60 36)"></ellipse>
      <ellipse cx="60" cy="20" rx="6" ry="14" transform="rotate(180 60 36)"></ellipse>
      <ellipse cx="60" cy="20" rx="6" ry="14" transform="rotate(210 60 36)"></ellipse>
      <ellipse cx="60" cy="20" rx="6" ry="14" transform="rotate(240 60 36)"></ellipse>
      <ellipse cx="60" cy="20" rx="6" ry="14" transform="rotate(270 60 36)"></ellipse>
      <ellipse cx="60" cy="20" rx="6" ry="14" transform="rotate(300 60 36)"></ellipse>
      <ellipse cx="60" cy="20" rx="6" ry="14" transform="rotate(330 60 36)"></ellipse>
    </g>
    
    <circle cx="60" cy="36" r="10" fill="#2E7D5B"></circle>
    
    <circle cx="60" cy="36" r="2" fill="#FFD93D" stroke="none"></circle>
    <circle cx="56" cy="34" r="1.5" fill="#FFD93D" stroke="none"></circle>
    <circle cx="64" cy="34" r="1.5" fill="#FFD93D" stroke="none"></circle>
    <circle cx="58" cy="40" r="1.5" fill="#FFD93D" stroke="none"></circle>
    <circle cx="62" cy="40" r="1.5" fill="#FFD93D" stroke="none"></circle>
  </g>
</svg>