<svg xmlns="http://www.w3.org/2000/svg" viewBox="0 0 120 120" width="120" height="120" aria-hidden="true">
  <g stroke="#1F2A24" stroke-width="3" stroke-linejoin="round" stroke-linecap="round">
    
    <path d="M60 110 C 60 80, 56 60, 60 40" fill="none" stroke="#2E7D5B" stroke-width="4"></path>
    
    <path d="M60 86 C 40 80, 30 90, 36 100 C 50 100, 60 96, 60 86 Z" fill="#6BCB77"></path>
    
    <path d="M60 70 C 80 64, 90 74, 84 84 C 70 84, 60 80, 60 70 Z" fill="#6BCB77"></path>
    
    <g fill="#F72585">
      <ellipse cx="60" cy="28" rx="8" ry="14"></ellipse>
      <ellipse cx="60" cy="28" rx="8" ry="14" transform="rotate(72 60 42)"></ellipse>
      <ellipse cx="60" cy="28" rx="8" ry="14" transform="rotate(144 60 42)"></ellipse>
      <ellipse cx="60" cy="28" rx="8" ry="14" transform="rotate(216 60 42)"></ellipse>
      <ellipse cx="60" cy="28" rx="8" ry="14" transform="rotate(288 60 42)"></ellipse>
    </g>
    <circle cx="60" cy="42" r="7" fill="#FFD93D"></circle>
  </g>
</svg>