<svg xmlns="http://www.w3.org/2000/svg" viewBox="0 0 120 120" width="120" height="120" aria-hidden="true">
  <defs>
    <radialGradient id="turtle-glow" cx="50%" cy="55%" r="60%">
      <stop offset="0%" stop-color="#6BCB77" stop-opacity="0.40"></stop>
      <stop offset="100%" stop-color="#6BCB77" stop-opacity="0"></stop>
    </radialGradient>
  </defs>
  <ellipse cx="60" cy="66" rx="48" ry="32" fill="url(#turtle-glow)"></ellipse>
  <g stroke="#1F2A24" stroke-width="3" stroke-linejoin="round" stroke-linecap="round">
    
    <ellipse cx="26" cy="62" rx="8" ry="6" fill="#6BCB77"></ellipse>
    <ellipse cx="26" cy="80" rx="8" ry="6" fill="#6BCB77"></ellipse>
    <ellipse cx="94" cy="80" rx="8" ry="6" fill="#6BCB77"></ellipse>
    
    <ellipse cx="100" cy="60" rx="12" ry="9" fill="#6BCB77"></ellipse>
    <circle cx="104" cy="58" r="2" fill="#1F2A24" stroke="none"></circle>
    
    <ellipse cx="60" cy="70" rx="38" ry="26" fill="#2E7D5B"></ellipse>
    
    <g fill="#6BCB77" stroke-width="2.5">
      <path d="M44 60 L 56 56 L 60 66 L 52 74 L 42 72 Z"></path>
      <path d="M60 56 L 72 56 L 76 66 L 72 76 L 60 76 L 56 66 Z"></path>
      <path d="M76 60 L 86 64 L 88 72 L 80 78 L 76 76 Z"></path>
      <path d="M44 78 L 52 80 L 56 88 L 48 90 Z"></path>
      <path d="M64 84 L 76 84 L 80 92 L 68 92 Z"></path>
    </g>
    
    <ellipse cx="60" cy="70" rx="38" ry="26" fill="none"></ellipse>
  </g>
</svg>